<?xml version="1.0" standalone="no"?>
<!DOCTYPE svg PUBLIC "-//W3C//DTD SVG 20010904//EN"
 "http://www.w3.org/TR/2001/REC-SVG-20010904/DTD/svg10.dtd">
<svg version="1.0" xmlns="http://www.w3.org/2000/svg"
 width="1040.000000pt" height="1040.000000pt" viewBox="0 0 1040.000000 1040.000000"
 preserveAspectRatio="xMidYMid meet">
<metadata>
Created by potrace 1.11, written by Peter Selinger 2001-2013
</metadata>
<g transform="translate(0.000000,1040.000000) scale(0.100000,-0.100000)"
fill="#000000" stroke="none">
<path d="M5018 10215 c-2 -2 -23 -4 -48 -6 -25 -1 -49 -5 -54 -7 -5 -3 -30 -6
-56 -8 -25 -1 -66 -8 -91 -14 -62 -17 -82 -21 -98 -22 -8 -1 -64 -19 -125 -40
-61 -21 -115 -40 -121 -42 -25 -8 -74 -30 -146 -66 -44 -21 -79 -36 -79 -34 0
3 -10 -4 -22 -16 -12 -11 -26 -20 -31 -20 -6 0 -25 -11 -43 -25 -18 -14 -36
-25 -41 -25 -4 0 -23 -14 -42 -30 -18 -17 -36 -30 -40 -30 -3 0 -18 -10 -32
-23 -15 -12 -47 -39 -71 -59 -50 -42 -178 -167 -178 -174 0 -2 -8 -12 -17 -22
-73 -76 -163 -212 -222 -337 -63 -131 -75 -158 -73 -168 1 -4 -2 -16 -7 -26
-6 -10 -13 -31 -15 -47 -3 -16 -11 -45 -16 -64 -26 -83 -32 -142 -37 -377 -6
-261 8 -337 86 -457 77 -119 235 -219 361 -229 20 -2 40 -6 47 -10 6 -4 14 -3
18 2 3 7 15 7 29 1 13 -5 26 -7 28 -4 5 4 57 13 103 17 11 1 26 8 34 15 7 7
20 11 27 8 8 -3 14 -2 14 3 0 5 18 16 40 25 22 9 40 21 40 27 0 6 9 9 19 6 14
-3 18 -1 14 9 -3 8 -1 14 3 14 12 0 74 56 74 66 0 5 9 15 20 22 11 7 20 17 20
24 0 6 6 19 14 27 27 30 68 149 70 204 0 9 3 17 6 17 3 0 6 40 6 89 1 62 8
109 24 157 12 38 23 74 25 79 8 29 30 75 37 75 4 0 8 7 8 15 0 8 5 15 12 15 6
0 9 3 5 6 -6 7 24 51 75 112 15 18 28 29 29 25 0 -4 4 2 9 15 5 12 16 22 24
22 7 0 16 6 19 13 5 13 109 87 124 88 5 1 20 10 36 21 15 11 27 16 27 12 0 -3
6 -2 13 4 21 18 108 44 128 39 12 -3 17 -1 12 6 -4 6 2 8 15 5 12 -3 23 -1 24
4 2 6 50 10 113 10 117 -1 214 -20 315 -62 56 -24 172 -96 178 -112 2 -4 10
-8 18 -8 13 0 19 -13 15 -33 -1 -5 3 -6 9 -2 31 19 192 -226 214 -326 3 -13
12 -52 19 -86 16 -70 14 -246 -3 -308 -6 -22 -12 -47 -14 -56 -2 -8 -12 -33
-21 -55 -9 -21 -18 -43 -19 -49 -3 -16 -79 -135 -111 -174 -34 -40 -97 -96
-106 -93 -5 1 -9 -4 -9 -11 0 -7 -8 -17 -19 -22 -10 -6 -42 -24 -72 -42 -29
-17 -56 -30 -61 -27 -4 3 -8 1 -8 -5 0 -11 -153 -63 -179 -60 -9 1 -18 0 -21
-1 -25 -9 -101 -11 -485 -11 -242 0 -444 0 -450 1 -5 1 -14 2 -18 1 -4 -1 -25
-3 -45 -6 -109 -14 -134 -19 -148 -27 -6 -4 -22 -9 -36 -12 -15 -2 -37 -10
-50 -17 -12 -7 -25 -12 -28 -12 -3 0 -15 -3 -28 -8 -13 -5 -28 -9 -33 -9 -5 0
-9 -5 -9 -10 0 -6 -3 -9 -7 -8 -7 2 -76 -32 -114 -57 -80 -50 -197 -156 -267
-240 -17 -22 -37 -45 -42 -52 -6 -7 -10 -16 -10 -22 0 -5 -4 -11 -9 -13 -11
-4 -96 -167 -111 -215 -7 -21 -16 -43 -21 -49 -5 -6 -6 -13 -3 -17 3 -3 1 -14
-4 -24 -6 -10 -13 -34 -16 -53 -3 -19 -8 -46 -10 -60 -3 -14 -7 -45 -10 -70
-6 -49 -7 -6026 -2 -6075 10 -84 72 -194 131 -233 38 -24 120 -61 150 -66 30
-6 3043 -7 3100 -2 17 2 39 6 50 11 61 23 112 52 131 72 11 12 24 20 27 16 4
-3 7 1 7 10 0 10 4 17 8 17 9 0 63 101 70 130 3 12 13 231 13 275 0 6 0 42 0
80 -1 39 -1 93 -1 120 0 28 0 82 0 120 0 39 0 93 -1 120 -1 41 0 161 2 200 0
6 0 39 0 75 -1 89 -1 87 0 250 0 80 0 150 0 155 0 6 0 96 0 200 0 105 -1 213
-2 240 -1 28 -1 82 0 120 1 39 1 93 0 120 -1 28 -1 82 0 120 1 39 1 93 0 120
-1 28 -1 82 0 120 1 39 1 93 0 120 -1 40 0 144 2 200 0 6 0 57 0 115 -1 142
-1 127 0 290 0 80 0 152 0 160 0 8 0 80 0 160 0 80 -1 168 -2 195 -1 28 -1 82
0 120 1 39 1 93 0 120 -1 28 -1 82 0 120 2 93 2 73 1 280 0 28 0 82 0 120 0
39 0 93 -1 120 -1 28 -1 82 0 120 1 39 2 75 2 80 0 26 -1 155 -2 200 -1 28 -1
82 0 120 1 39 1 93 0 120 -1 28 -1 82 0 120 2 93 2 73 1 280 0 28 0 82 0 120
0 39 0 93 -1 120 -1 41 0 161 2 200 0 6 0 39 0 75 -1 89 -1 87 0 250 0 80 0
150 0 155 0 6 0 96 0 200 0 105 -1 213 -2 240 -1 28 -1 82 0 120 1 39 1 93 0
120 -1 28 -1 82 0 120 1 39 1 93 0 120 -1 28 -1 82 0 120 1 39 1 93 0 120 -1
28 -1 82 0 120 2 97 1 142 -5 275 -3 63 -6 131 -7 152 -1 20 -5 35 -8 33 -3
-2 -11 24 -18 58 -23 116 -74 267 -132 394 -10 24 -19 46 -18 49 0 4 -3 10 -8
13 -4 3 -17 24 -29 46 -36 69 -49 90 -62 98 -7 5 -10 12 -8 16 3 4 -7 20 -20
37 -14 16 -33 41 -42 57 -9 15 -20 27 -24 27 -4 0 -8 4 -8 10 0 17 -174 200
-191 200 -6 0 -7 5 -4 10 3 6 3 10 -2 10 -4 0 -24 14 -43 30 -49 43 -206 150
-219 150 -6 0 -11 4 -11 8 0 5 -25 21 -56 36 -78 39 -189 89 -191 88 -1 0 -30
10 -65 24 -34 13 -70 24 -80 24 -10 0 -18 5 -18 11 0 5 -4 8 -8 5 -11 -6 -93
15 -88 23 2 3 -10 5 -27 5 -18 -1 -41 2 -52 6 -11 4 -45 10 -75 14 -30 3 -66
8 -80 12 -26 6 -377 14 -382 9z"/>
</g>
</svg>
